<svg width="930" height="580" viewBox="0 0 930 580" fill="none" xmlns="http://www.w3.org/2000/svg">
<g clip-path="url(#clip0_6258_1045)">
<rect width="930" height="580" fill="#00A17B"/>
<path d="M155.629 394.28C155.629 336.14 192.489 295.86 246.829 295.86C293.569 295.86 326.249 322.46 332.709 363.88H296.989C290.909 340.32 271.909 327.78 247.969 327.78C214.149 327.78 190.969 353.62 190.969 393.9C190.969 433.8 212.629 459.64 246.449 459.64C271.909 459.64 290.909 446.34 297.369 424.3H333.089C325.869 464.58 291.289 491.56 246.449 491.56C191.729 491.56 155.629 452.8 155.629 394.28ZM425.118 491.56C385.218 491.56 361.658 469.14 361.658 435.32C361.658 401.12 387.118 379.84 430.818 376.42L489.338 371.86V366.54C489.338 335.38 470.718 324.36 445.638 324.36C415.618 324.36 398.518 337.66 398.518 360.08H367.358C367.358 321.32 399.278 295.86 447.158 295.86C493.138 295.86 524.298 320.18 524.298 370.34V487H493.898L490.098 456.98C480.598 478.26 455.138 491.56 425.118 491.56ZM435.378 463.82C469.198 463.82 489.718 441.78 489.718 406.82V396.94L442.218 400.74C410.678 403.78 397.758 415.94 397.758 434.18C397.758 453.94 412.198 463.82 435.378 463.82ZM680.166 299.66V332.34H664.206C630.386 332.34 609.486 352.86 609.486 388.58V487H573.766V301.56H607.206L609.486 329.68C617.086 310.3 635.706 297.38 661.166 297.38C667.626 297.38 672.946 298.14 680.166 299.66ZM781.468 491.56C727.508 491.56 694.828 451.28 694.828 394.66C694.828 337.66 727.888 295.86 782.988 295.86C811.488 295.86 835.428 308.4 847.968 331.2V207.32H883.308V487H851.388L848.348 453.18C836.188 478.64 811.108 491.56 781.468 491.56ZM788.688 459.26C825.168 459.26 847.588 432.28 847.588 393.52C847.588 355.52 825.168 328.16 788.688 328.16C752.208 328.16 730.928 355.52 730.928 393.52C730.928 431.9 752.208 459.26 788.688 459.26Z" fill="#F3E2D8"/>
<path d="M40.68 170.28C40.68 112.14 77.54 71.86 131.88 71.86C178.62 71.86 211.3 98.46 217.76 139.88H182.04C175.96 116.32 156.96 103.78 133.02 103.78C99.2 103.78 76.02 129.62 76.02 169.9C76.02 209.8 97.68 235.64 131.5 235.64C156.96 235.64 175.96 222.34 182.42 200.3H218.14C210.92 240.58 176.34 267.56 131.5 267.56C76.78 267.56 40.68 228.8 40.68 170.28ZM310.168 267.56C270.268 267.56 246.708 245.14 246.708 211.32C246.708 177.12 272.168 155.84 315.868 152.42L374.388 147.86V142.54C374.388 111.38 355.768 100.36 330.688 100.36C300.668 100.36 283.568 113.66 283.568 136.08H252.408C252.408 97.32 284.328 71.86 332.208 71.86C378.188 71.86 409.348 96.18 409.348 146.34V263H378.948L375.148 232.98C365.648 254.26 340.188 267.56 310.168 267.56ZM320.428 239.82C354.248 239.82 374.768 217.78 374.768 182.82V172.94L327.268 176.74C295.728 179.78 282.808 191.94 282.808 210.18C282.808 229.94 297.248 239.82 320.428 239.82ZM565.217 75.66V108.34H549.257C515.437 108.34 494.537 128.86 494.537 164.58V263H458.817V77.56H492.257L494.537 105.68C502.137 86.3 520.757 73.38 546.217 73.38C552.677 73.38 557.997 74.14 565.217 75.66ZM672.219 267.56C617.499 267.56 579.879 228.04 579.879 170.28C579.879 112.14 616.739 71.86 670.699 71.86C723.519 71.86 758.099 108.34 758.099 163.44V176.74L614.459 177.12C617.119 216.26 637.639 237.92 672.979 237.92C700.719 237.92 718.959 226.52 725.039 205.24H758.479C749.359 245.14 718.199 267.56 672.219 267.56ZM670.699 101.88C639.539 101.88 619.779 120.5 615.219 153.18H722.379C722.379 122.4 702.239 101.88 670.699 101.88Z" fill="#F3E2D8"/>
<path d="M814.444 139C814.444 137.895 813.549 137 812.444 137H807.556C806.451 137 805.556 137.895 805.556 139V161.442C805.556 163.224 803.401 164.116 802.141 162.856L786.273 146.987C785.492 146.206 784.225 146.206 783.444 146.987L779.987 150.444C779.206 151.225 779.206 152.492 779.987 153.273L795.856 169.141C797.116 170.401 796.224 172.556 794.442 172.556H772C770.895 172.556 770 173.451 770 174.556V179.444C770 180.549 770.895 181.444 772 181.444H794.442C796.224 181.444 797.116 183.599 795.856 184.859L779.987 200.727C779.206 201.508 779.206 202.775 779.987 203.556L783.444 207.013C784.225 207.794 785.492 207.794 786.273 207.013L802.141 191.144C803.401 189.884 805.556 190.776 805.556 192.558V215C805.556 216.105 806.451 217 807.556 217H812.444C813.549 217 814.444 216.105 814.444 215V192.558C814.444 190.776 816.599 189.884 817.859 191.144L833.727 207.013C834.508 207.794 835.775 207.794 836.556 207.013L840.013 203.556C840.794 202.775 840.794 201.508 840.013 200.727L824.144 184.859C822.884 183.599 823.776 181.444 825.558 181.444H848C849.105 181.444 850 180.549 850 179.444V174.556C850 173.451 849.105 172.556 848 172.556H825.558C823.776 172.556 822.884 170.401 824.144 169.141L840.013 153.273C840.794 152.492 840.794 151.225 840.013 150.444L836.556 146.987C835.775 146.206 834.508 146.206 833.727 146.987L817.859 162.856C816.599 164.116 814.444 163.224 814.444 161.442V139Z" fill="#F3E2D8"/>
<path d="M342.825 531.5H348.15C350.167 531.5 351.692 531.867 352.725 532.6C353.775 533.317 354.3 534.383 354.3 535.8C354.3 536.683 354.1 537.433 353.7 538.05C353.3 538.65 352.675 539.158 351.825 539.575V539.625C352.925 539.992 353.725 540.517 354.225 541.2C354.725 541.883 354.975 542.783 354.975 543.9C354.975 545.567 354.483 546.833 353.5 547.7C352.517 548.567 351.083 549 349.2 549H342.825V531.5ZM348.55 538.6C349.367 538.6 350 538.383 350.45 537.95C350.9 537.517 351.125 536.908 351.125 536.125C351.125 535.392 350.875 534.85 350.375 534.5C349.875 534.133 349.1 533.95 348.05 533.95H345.975V538.6H348.55ZM349.05 546.525C349.95 546.525 350.642 546.283 351.125 545.8C351.608 545.317 351.85 544.625 351.85 543.725C351.85 542.758 351.55 542.05 350.95 541.6C350.367 541.15 349.433 540.925 348.15 540.925H345.975V546.525H349.05ZM361.064 542.025L355.414 531.5H358.864L362.639 539.125L366.414 531.5H369.864L364.239 542.025V549H361.064V542.025ZM381.88 533.85H376.605V531.5H390.305V533.85H385.03V549H381.88V533.85ZM392.507 531.5H395.682V538.825H402.932V531.5H406.107V549H402.932V541.375H395.682V549H392.507V531.5ZM409.744 531.5H420.969V534.05H412.894V538.525H420.119V541.075H412.894V546.45H420.969V549H409.744V531.5ZM442.837 539.65V549H440.512L440.162 547.975C439.062 548.825 437.712 549.25 436.112 549.25C434.596 549.25 433.287 548.892 432.187 548.175C431.087 547.458 430.246 546.425 429.662 545.075C429.079 543.725 428.787 542.117 428.787 540.25C428.787 538.433 429.112 536.85 429.762 535.5C430.412 534.133 431.329 533.083 432.512 532.35C433.712 531.617 435.112 531.25 436.712 531.25C438.096 531.25 439.304 531.508 440.337 532.025C441.371 532.542 442.129 533.267 442.612 534.2L440.837 535.825C440.421 535.158 439.862 534.658 439.162 534.325C438.462 533.975 437.662 533.8 436.762 533.8C435.229 533.8 434.046 534.358 433.212 535.475C432.379 536.592 431.962 538.183 431.962 540.25C431.962 542.383 432.354 544.025 433.137 545.175C433.921 546.308 435.037 546.875 436.487 546.875C437.771 546.875 438.846 546.567 439.712 545.95V541.9H435.812V539.65H442.837ZM452.723 549.25C451.14 549.25 449.765 548.892 448.598 548.175C447.432 547.442 446.54 546.4 445.923 545.05C445.307 543.7 444.998 542.1 444.998 540.25C444.998 538.4 445.307 536.8 445.923 535.45C446.54 534.1 447.432 533.067 448.598 532.35C449.765 531.617 451.14 531.25 452.723 531.25C454.307 531.25 455.673 531.617 456.823 532.35C457.99 533.067 458.882 534.1 459.498 535.45C460.115 536.8 460.423 538.4 460.423 540.25C460.423 542.1 460.115 543.7 459.498 545.05C458.882 546.4 457.99 547.442 456.823 548.175C455.673 548.892 454.307 549.25 452.723 549.25ZM452.723 546.725C454.123 546.725 455.223 546.15 456.023 545C456.84 543.85 457.248 542.267 457.248 540.25C457.248 538.233 456.84 536.65 456.023 535.5C455.223 534.333 454.123 533.75 452.723 533.75C451.307 533.75 450.19 534.333 449.373 535.5C448.573 536.65 448.173 538.233 448.173 540.25C448.173 542.267 448.573 543.85 449.373 545C450.19 546.15 451.307 546.725 452.723 546.725ZM469.74 549.25C468.157 549.25 466.782 548.892 465.615 548.175C464.448 547.442 463.557 546.4 462.94 545.05C462.323 543.7 462.015 542.1 462.015 540.25C462.015 538.4 462.323 536.8 462.94 535.45C463.557 534.1 464.448 533.067 465.615 532.35C466.782 531.617 468.157 531.25 469.74 531.25C471.323 531.25 472.69 531.617 473.84 532.35C475.007 533.067 475.898 534.1 476.515 535.45C477.132 536.8 477.44 538.4 477.44 540.25C477.44 542.1 477.132 543.7 476.515 545.05C475.898 546.4 475.007 547.442 473.84 548.175C472.69 548.892 471.323 549.25 469.74 549.25ZM469.74 546.725C471.14 546.725 472.24 546.15 473.04 545C473.857 543.85 474.265 542.267 474.265 540.25C474.265 538.233 473.857 536.65 473.04 535.5C472.24 534.333 471.14 533.75 469.74 533.75C468.323 533.75 467.207 534.333 466.39 535.5C465.59 536.65 465.19 538.233 465.19 540.25C465.19 542.267 465.59 543.85 466.39 545C467.207 546.15 468.323 546.725 469.74 546.725ZM480.056 531.5H486.056C488.406 531.5 490.173 532.208 491.356 533.625C492.556 535.025 493.156 537.117 493.156 539.9C493.156 542.067 492.89 543.817 492.356 545.15C491.823 546.483 490.99 547.458 489.856 548.075C488.723 548.692 487.231 549 485.381 549H480.056V531.5ZM485.756 546.45C487.273 546.45 488.356 545.942 489.006 544.925C489.673 543.908 490.006 542.233 490.006 539.9C490.006 537.85 489.681 536.367 489.031 535.45C488.398 534.517 487.381 534.05 485.981 534.05H483.206V546.45H485.756ZM501.883 531.5H507.483C509.499 531.5 511.024 531.967 512.058 532.9C513.108 533.817 513.633 535.175 513.633 536.975C513.633 538.892 513.091 540.35 512.008 541.35C510.941 542.333 509.391 542.825 507.358 542.825H505.033V549H501.883V531.5ZM507.633 540.275C508.583 540.275 509.308 540.008 509.808 539.475C510.308 538.925 510.558 538.133 510.558 537.1C510.558 536.1 510.291 535.342 509.758 534.825C509.241 534.308 508.474 534.05 507.458 534.05H505.033V540.275H507.633ZM516.507 531.5H527.732V534.05H519.657V538.525H526.882V541.075H519.657V546.45H527.732V549H516.507V531.5ZM537.342 549.25C535.759 549.25 534.384 548.892 533.217 548.175C532.051 547.442 531.159 546.4 530.542 545.05C529.926 543.7 529.617 542.1 529.617 540.25C529.617 538.4 529.926 536.8 530.542 535.45C531.159 534.1 532.051 533.067 533.217 532.35C534.384 531.617 535.759 531.25 537.342 531.25C538.926 531.25 540.292 531.617 541.442 532.35C542.609 533.067 543.501 534.1 544.117 535.45C544.734 536.8 545.042 538.4 545.042 540.25C545.042 542.1 544.734 543.7 544.117 545.05C543.501 546.4 542.609 547.442 541.442 548.175C540.292 548.892 538.926 549.25 537.342 549.25ZM537.342 546.725C538.742 546.725 539.842 546.15 540.642 545C541.459 543.85 541.867 542.267 541.867 540.25C541.867 538.233 541.459 536.65 540.642 535.5C539.842 534.333 538.742 533.75 537.342 533.75C535.926 533.75 534.809 534.333 533.992 535.5C533.192 536.65 532.792 538.233 532.792 540.25C532.792 542.267 533.192 543.85 533.992 545C534.809 546.15 535.926 546.725 537.342 546.725ZM547.659 531.5H553.259C555.276 531.5 556.801 531.967 557.834 532.9C558.884 533.817 559.409 535.175 559.409 536.975C559.409 538.892 558.867 540.35 557.784 541.35C556.717 542.333 555.167 542.825 553.134 542.825H550.809V549H547.659V531.5ZM553.409 540.275C554.359 540.275 555.084 540.008 555.584 539.475C556.084 538.925 556.334 538.133 556.334 537.1C556.334 536.1 556.067 535.342 555.534 534.825C555.017 534.308 554.251 534.05 553.234 534.05H550.809V540.275H553.409ZM562.258 531.5H565.433V546.45H573.733V549H562.258V531.5ZM576.248 531.5H587.473V534.05H579.398V538.525H586.623V541.075H579.398V546.45H587.473V549H576.248V531.5Z" fill="#F3E2D8"/>
</g>
<defs>
<clipPath id="clip0_6258_1045">
<rect width="930" height="580" fill="white"/>
</clipPath>
</defs>
</svg>
